# xmcd
#
# Track frame offsets:
# 150
# 11875
# 32987
# 45915
# 61827
# 81770
# 103735
# 124425
# 143795
# 163955
# 185297
# 203130
# 242995
#
# Disc length: 3982 seconds
#
#
# Revision: 3
# Processed by: cddbd v1.5.2PL0 Copyright (c) Steve Scherf et al.
# Submitted via: FreeRIP 2.96 
#
DISCID=b70f8c0d
DTITLE=Amos Garrett - Off the Floor Live!
DYEAR=1996
DGENRE=Blues
TTITLE0=Wrong Lake to Catch a Fish
TTITLE1=Bad Bad Whiskey
TTITLE2=Maybe It's Because of Love
TTITLE3=Just Like a Fish
TTITLE4=Walkin' Blues
TTITLE5=That's What a Little Dream Can Do
TTITLE6=Grasshoppers in My Pillow
TTITLE7=Buried Alive in the Blues
TTITLE8=Sleepwalk
TTITLE9=Goose Grease
TTITLE10=Looking for a Sign
TTITLE11=Willie and the Hand Jive
TTITLE12=Conversation with John Lee Hooker
EXTD=
EXTT0=
EXTT1=
EXTT2=
EXTT3=
EXTT4=
EXTT5=
EXTT6=
EXTT7=
EXTT8=
EXTT9=
EXTT10=
EXTT11=
EXTT12=
PLAYORDER=
